<?xml version="1.0" encoding="utf-8"?>
<!-- Generator: Adobe Illustrator 24.3.0, SVG Export Plug-In . SVG Version: 6.00 Build 0)  -->
<svg version="1.1" id="レイヤー_1" xmlns="http://www.w3.org/2000/svg" xmlns:xlink="http://www.w3.org/1999/xlink" x="0px"
	 y="0px" viewBox="0 0 1200 220" style="enable-background:new 0 0 1200 220;" xml:space="preserve">
<style type="text/css">
	.st0{fill:#231815;}
	.st1{fill:url(#SVGID_1_);}
	.st2{fill:url(#SVGID_2_);}
	.st3{fill:url(#SVGID_3_);}
	.st4{fill:url(#SVGID_4_);}
	.st5{fill:url(#SVGID_5_);}
	.st6{fill:url(#SVGID_6_);}
</style>
<g>
	<g>
		<path class="st0" d="M238,62c-8.4-14-18.1-21.4-28.1-21.4c-8.2,0-14.1,5.9-14.1,13.6c0,7.9,6,13.4,19.9,17.6
			c11.2,3.4,16.3,5.6,21.4,9.8c5.5,4.6,8.4,11.5,8.4,19c0,15.5-12,27.4-27.8,27.4c-4.8,0-8.4-0.9-13-3.1c-2.2-1-3.9-1.5-5-1.5
			c-1.4,0-2.5,0.5-9.6,3.8l-7.8-25.7l4.3-1.8c8.9,14.5,20.1,22.4,31.7,22.4c9.4,0,16.3-6.5,16.3-15.3c0-3.8-1.5-8.4-4.8-11
			c-2.9-2.3-5.9-3.7-15.2-6.6c-20.8-6.6-29-14.8-29-28.7c0-14.4,10.8-25.9,24.5-25.9c2.7,0,5.7,0.5,8.4,1.5c2.9,1.1,4.2,1.7,6.5,1.7
			c3.1,0,5.7-0.5,9.9-2.2l7.4,24.2L238,62z"/>
		<path class="st0" d="M275.2,111.6c0,8.3,0.8,9.2,7.6,9.7v4.7h-28.3v-4.7c7.9-0.3,8.5-1,8.5-9.7V87.1c0-9.2-1-10.6-8.7-11.1V72
			l20.8-6.5V111.6z M276.4,44.3c0,4.6-3.6,8.4-7.8,8.4c-4.1,0-7.6-3.8-7.6-8.4c0-4.5,3.6-8.3,7.8-8.3
			C272.8,36,276.4,39.9,276.4,44.3z"/>
		<path class="st0" d="M311.4,65.5v11c6.5-6.9,13-10.2,19.6-10.2c6.9,0,11,2.9,14.8,10.6c6.5-6.9,13.4-10.6,20.4-10.6
			c5.6,0,10.8,2.9,13.5,7.5c1.8,3.1,2.3,6.2,2.3,11.2v26.6c0,8.3,0.8,9.2,7.6,9.7v4.7h-27.4v-4.7c6.9-0.5,7.6-1.4,7.6-9.7V87.1
			c0-3.1-0.4-5.7-1.5-7.9c-1.4-2.4-4.6-4.2-7.9-4.2c-4.1,0-8.8,2.2-13.8,6.4v30.2c0,8.3,0.8,9.2,7.6,9.7v4.7h-27.4v-4.7
			c6.9-0.5,7.6-1.4,7.6-9.7V87.8c0-8.7-2.8-12.7-8.9-12.7c-4.1,0-8.4,2-14.3,6.9v29.7c0,8.3,0.8,9.2,7.6,9.7v4.7h-28.3v-4.7h0.3
			c7.4,0,8.3-1,8.3-9.7V86.4c0-8.4-1.3-9.9-8.7-10.3V72L311.4,65.5z"/>
		<path class="st0" d="M426.7,65.7c15.8,0,28.3,13.8,28.3,31.1c0,17.3-12.5,31-28.4,31c-15.8,0-28.5-13.8-28.5-31
			C398,79.5,410.6,65.7,426.7,65.7z M426.5,122.7c9.6,0,14.5-9,14.5-25.9s-5-25.9-14.3-25.9c-9.4,0-14.9,9.4-14.9,25.9
			C411.9,113,417.4,122.7,426.5,122.7z"/>
		<path class="st0" d="M485.3,76.5c6.5-7.1,13.4-10.8,20.3-10.8c5.6,0,10.6,2.8,13.1,7.3c1.9,3.3,2.5,6.9,2.5,13.2v25.5
			c0,8,0.8,9,7.5,9.6v4.7h-27.3v-4.7c6.9-0.5,7.6-1.4,7.6-9.6V88.6c0-9.7-2.8-13.6-9.6-13.6c-4.8,0-9.6,2.3-14.3,7v29.7
			c0,8,0.8,9,7.6,9.6v4.7h-28.3v-4.7c7.9-0.3,8.5-1,8.5-9.6V86.2c0-8-1.5-9.8-8.7-10.2V72l20.8-6.5V76.5z"/>
		<path class="st0" d="M604.6,83h-8.5v26.1c0,9.9,1.1,11.7,9.3,11.7h1.5v5.1H570v-5.1h2.3c8,0,9.2-1.8,9.2-11.7V53.5
			c0-9.9-1.1-11.2-9.2-11.6l-2.3-0.1v-5h36.9c22.8,0,34.9,7.8,34.9,22.4c0,12-9.9,20.5-22.3,22l14.5,28.1c2.4,4.6,4.5,7.3,6.4,8.9
			c2,1.8,5.1,2.8,8.8,2.8h0.9v4.8h-23.3L604.6,83z M605.8,78c12.9,0,20.3-4.8,20.3-18.3c0-11.7-6.5-17.7-19.2-17.7
			c-8.5,0-10.7,2.3-10.7,11.3V78H605.8z"/>
		<path class="st0" d="M667.8,94.8c0,3.3,0.8,8.3,2.5,13.2c2.7,7.5,9,11.7,17.6,11.7c7.1,0,12.5-2.7,19-9.4l3.3,2.7
			c-7.6,10.1-16.4,14.8-27,14.8c-16.6,0-28.9-12.6-28.9-29.5c0-17.8,13.1-32.5,29.2-32.5c9.2,0,17.3,4.8,21.8,12.6
			c3.4,6,4.2,12.4,4.2,15v1.4H667.8z M696.5,88.9V88c0-10.7-5.3-17.7-13.5-17.7c-5.9,0-10.8,3.7-13.1,9.8c-0.8,2-1.4,5.2-1.7,8.8
			H696.5z"/>
		<path class="st0" d="M775.3,120.6c-4.7,5.1-8,7.1-11.7,7.1c-4.2,0-7-2.5-9-8.2c-7.3,5.7-12.7,8.2-18.6,8.2
			c-9.4,0-16.4-6.4-16.4-15c0-7.6,5.2-13.8,15.5-18.5c4.2-1.9,9.4-3.4,19-5.6v-6.9c0-8.2-2-11-8-11c-4.7,0-7.6,2.4-9.4,7.6
			c-1.8,5.3-4.1,7.5-7.8,7.5c-3.6,0-6.5-3.1-6.5-7c0-7.5,10.3-13.2,24.1-13.2c8.7,0,15.2,2.8,18,7.6c1.3,2.3,1.7,5.2,1.7,9.7v26.4
			c0,8.4,0.4,9.8,2.9,9.8c1.1,0,2-0.4,3.6-1.7L775.3,120.6z M754,93.6c-14.8,4.2-21,9.4-21,17.6c0,5.5,3.1,9.2,7.6,9.2
			c5.1,0,9.4-1.9,13.4-6V93.6z"/>
		<path class="st0" d="M801.6,111.7c0,8,0.8,9,7.6,9.6v4.7h-28.3v-4.7h0.3c7.4,0,8.3-1,8.3-9.6V56.6c0-8-1.3-9.6-8.7-10.2v-4.1
			l20.8-6.9V111.7z"/>
		<path class="st0" d="M926.1,102.3l-8,23.7h-67.9v-5.1h2.3c8,0,9.2-1.8,9.2-11.7V53.5c0-9.9-1.1-11.2-9.2-11.6l-2.3-0.1v-5h65.9
			l7.5,22.9l-4.2,2.2c-9.2-13.6-18.6-19.4-31.6-19.4c-9,0-11.5,2.2-11.5,10.6v24.3h3.8c12.9,0,17.2-3.3,19.5-14.5h4.7v35.7h-4.6
			c-1.5-11.3-6.9-15.4-19.7-15.4h-3.7v27c0,8.7,1.8,10.6,9.8,10.6c10.4,0,18.6-2.8,24.3-7.9c3.7-3.4,6.6-6.4,11.7-12.7L926.1,102.3z
			"/>
		<path class="st0" d="M940.3,105.3c6.8,11.1,15.3,16.9,24.2,16.9c5.7,0,10.1-3.8,10.1-8.9c0-5.5-3.1-7.8-13.9-9.9
			c-15.2-3.2-22.5-9.7-22.5-19.7c0-9.9,8.2-18,18.2-18c1.8,0,3.4,0.3,6.5,1.3c2,0.6,3.3,1,4.1,1c1.3,0,3.6-0.5,8.7-2l6.2,18.5
			l-3.9,2.2c-1.4-2.3-2.4-3.6-4.2-5.6c-6.4-7-11.3-9.8-17.3-9.8c-5.7,0-9.6,3.2-9.6,8c0,4.3,3.1,7.9,14.6,9.8
			c15.3,2.5,22.7,9,22.7,19.6c0,10.6-8.4,19.1-18.7,19.1c-2.5,0-4.6-0.4-8.2-1.5c-2.3-0.8-3.1-1-3.7-1c-1,0-3.7,0.6-10.3,2.4
			l-6.9-20.1L940.3,105.3z"/>
		<path class="st0" d="M1013.4,106.7c0,10.3,1.7,13.2,7.5,13.2c3.2,0,5.2-1,9.3-4.8l3.2,3.1c-4.7,6.4-10.8,9.6-18,9.6
			c-5.5,0-10.3-2.2-12.1-5.6c-1.5-2.8-2-5.9-2-11.7V73.4H993v-4.6c9.4-3.1,13.2-8.4,15.2-21h5.2v19.7h16.1v5.9h-16.1V106.7z"/>
		<path class="st0" d="M1093,120.6c-4.7,5.1-8,7.1-11.7,7.1c-4.2,0-7-2.5-9-8.2c-7.3,5.7-12.7,8.2-18.6,8.2c-9.4,0-16.4-6.4-16.4-15
			c0-7.6,5.2-13.8,15.5-18.5c4.2-1.9,9.4-3.4,19-5.6v-6.9c0-8.2-2-11-8-11c-4.7,0-7.6,2.4-9.4,7.6c-1.8,5.3-4.1,7.5-7.8,7.5
			c-3.6,0-6.5-3.1-6.5-7c0-7.5,10.3-13.2,24.1-13.2c8.7,0,15.2,2.8,18,7.6c1.3,2.3,1.7,5.2,1.7,9.7v26.4c0,8.4,0.4,9.8,2.9,9.8
			c1.1,0,2-0.4,3.6-1.7L1093,120.6z M1071.7,93.6c-14.8,4.2-21,9.4-21,17.6c0,5.5,3.1,9.2,7.6,9.2c5.1,0,9.4-1.9,13.4-6V93.6z"/>
		<path class="st0" d="M1119.1,106.7c0,10.3,1.7,13.2,7.5,13.2c3.2,0,5.2-1,9.3-4.8l3.2,3.1c-4.7,6.4-10.8,9.6-18,9.6
			c-5.5,0-10.3-2.2-12.1-5.6c-1.5-2.8-2-5.9-2-11.7V73.4h-8.3v-4.6c9.4-3.1,13.2-8.4,15.2-21h5.2v19.7h16.1v5.9h-16.1V106.7z"/>
		<path class="st0" d="M1156.6,94.8c0,3.3,0.8,8.3,2.5,13.2c2.7,7.5,9,11.7,17.6,11.7c7.1,0,12.5-2.7,19-9.4l3.3,2.7
			c-7.6,10.1-16.4,14.8-27,14.8c-16.6,0-28.9-12.6-28.9-29.5c0-17.8,13.1-32.5,29.2-32.5c9.2,0,17.3,4.8,21.8,12.6
			c3.4,6,4.2,12.4,4.2,15v1.4H1156.6z M1185.2,88.9V88c0-10.7-5.3-17.7-13.5-17.7c-5.9,0-10.8,3.7-13.1,9.8c-0.8,2-1.4,5.2-1.7,8.8
			H1185.2z"/>
	</g>
	<g>
		<path class="st0" d="M311.4,168.3c1.8,0.1,4,0.2,6.8,1.3c3,1.2,4.6,3,4.6,5.6c0,1.9-1.3,3.3-3.3,3.3c-0.7,0-1.6-0.3-2.8-2.7
			c-1.6-3.2-3.1-4.9-5.7-6.5L311.4,168.3z M353.2,165.7c-6.5,11.1-15.5,19.4-27.6,27.5c-0.6,0.4-1.3,1-1.9,1.4
			c-0.7,0.5-1.3,0.8-1.8,0.8c-0.9,0-2.1-0.3-3.8-2c-2.1-2.1-3-3.4-3.1-4.8c-0.1-0.4-0.1-0.8-0.1-1.1c0-0.3,0-0.6,0.1-0.9l0.9-0.2
			c1.1,1.5,2.4,2.5,3.2,2.5c0.9,0,2.2-0.4,3.5-1.1c10.3-5.6,21.3-13.4,29.7-22.9L353.2,165.7z M318.7,156.8c2.5,0.2,4.6,0.7,7.1,1.7
			c2.5,1.1,4.2,3,4.2,5.1c0,2.3-1.4,3.6-3.2,3.6c-1.6,0-2.5-1.3-3-2.6c-1.5-3.3-3.1-5.3-5.4-6.8L318.7,156.8z"/>
		<path class="st0" d="M373.9,167.1c0.9-0.2,1.7-0.3,2.7-0.3c0.9,0,1.7,0.2,3.3,0.8c0.8,0.3,2.4,1.2,2.4,2.2c0,0.4-0.2,0.8-0.3,1.1
			c-0.2,0.3-0.4,0.8-0.4,1c-0.1,0.5-0.2,1.1-0.2,2.5c4.2-0.5,7.9-0.9,11.4-1.5c1-0.2,2.1-0.5,3.4-1.1c0.4-0.2,0.8-0.4,1.3-0.4
			c1.2,0,2.8,0.3,4.5,1.2c1.3,0.6,1.7,1.5,1.7,2.5c0,1.1-0.7,1.9-2.3,1.9h-3.6c-1.1,0-2.3,0-3.3,0.1c-4.4,0.2-8.9,0.6-13.3,1.1
			c-0.1,3.2-0.2,5.3-0.2,6.9c0,1,0.1,1.9,0.4,2.3c0.5,0.7,1.4,0.7,2.7,0.7c2,0,3.8-0.1,5.7-0.4c0.6-0.1,1.5-0.3,2-0.5
			c0.8-0.2,1.3-0.5,1.8-0.5c3,0,4.8,1.6,4.8,3.3c0,1.7-0.8,2.6-3.3,2.8c-2,0.2-4.7,0.3-7.8,0.3c-4.6,0-6.9-0.7-8.5-1.5
			c-1.5-0.8-2.3-2.4-2.5-3.9c-0.3-2-0.3-5.2-0.3-8.9c-2.5,0.4-4.9,0.8-7.1,1.3c-2.1,0.4-3.8,0.9-4.5,1.3c-0.5,0.3-1.3,0.6-1.8,0.6
			c-0.9,0-2.4-0.8-3.6-2.3c-1.1-1.4-2-3-2.1-4.2l0.7-0.3c1.7,1.3,2.7,1.6,4.3,1.6c1.3,0,2.8-0.1,4.7-0.3c2.9-0.3,5.8-0.7,9.5-1.3
			c0-2.2,0-3.4-0.1-4.2c-0.1-1.9-0.3-2.5-2.1-3V167.1z M365.1,161.3c1.6,1.1,3.2,1.3,4.9,1.3c1.3,0,3.1-0.3,5-0.5
			c3.3-0.5,6.2-1.1,9.5-2c0.7-0.2,1.4-0.3,2.3-0.8c1-0.5,1.6-0.7,2.4-0.7c0.5,0,1.9,0.2,3.3,0.8c1.6,0.6,2.1,1.6,2.1,2.6
			c0,1-0.5,1.7-2.6,1.9c-7.5,0.8-12.6,1.5-18.3,2.3c-2,0.3-2.8,0.5-3.6,0.5c-1.3,0-2.8-0.8-4.2-2.4c-0.6-0.7-1.3-1.9-1.4-2.6
			L365.1,161.3z"/>
		<path class="st0" d="M410.8,160.2c2.1,0.1,4.5,0.6,6.5,1.4c3.3,1.3,5.6,3.4,5.6,6.2c0,2.2-1.4,4-3.3,4c-2.4,0-3-1.6-3.6-3.4
			c-1.2-3.3-3.3-6.2-5.4-7.4L410.8,160.2z M449.9,163.5c-6.2,11.3-14.4,19-27.6,27.9c-0.9,0.6-1.6,1.1-2.2,1.7
			c-0.4,0.5-1.3,0.9-2.1,0.9c-1.5,0-4-1.9-6.1-4.8c-0.6-0.9-0.8-2.1-0.8-3.7l0.8-0.3c1.4,1.3,2.6,1.9,3.5,1.9c0.6,0,1.9-0.2,3.3-1
			c10.7-5.5,22.4-14.4,30.3-23.3L449.9,163.5z"/>
		<path class="st0" d="M474.3,175.7c0,2.7-2.4,5-5.1,5c-2.7,0-5-2.3-5-5c0-2.7,2.3-5,5-5C471.9,170.7,474.3,173,474.3,175.7z"/>
		<path class="st0" d="M496.7,157.7c1-0.4,2.1-0.6,3-0.6c0.8,0,2.4,0.4,4.1,1.4c1.7,1,2.8,1.9,2.8,2.8c0,0.7-0.1,1.1-0.4,1.7
			c-0.3,0.5-0.5,1.1-0.5,2c-0.1,2.7-0.1,5.2-0.1,7.6c0,2,0.1,4.2,0.1,6.6c0,2.2-1,3.4-2.5,3.4c-1.3,0-2-0.7-2.7-2.5
			c-0.5-1.3-0.6-2.3-0.6-2.7c0-0.4,0.1-0.9,0.2-1.5c0.1-0.4,0.1-1,0.2-2.1c0.1-1.7,0.1-3.4,0.1-5.1c0-1.8-0.1-3.7-0.1-5.8
			c-0.1-2.4-0.3-3.3-3.5-4.3V157.7z M510.7,154.8c1.3-0.6,2.7-0.9,3.6-0.9c1.3,0,3.6,0.7,6.1,2.1c0.9,0.5,1.3,1.3,1.3,1.9
			c0,0.8-0.2,1.2-0.7,1.8c-0.4,0.6-0.7,1.4-0.7,2.8c0,6.5-0.2,12.2-0.5,16.6c-0.4,5.9-2.3,9.9-6.5,13.4c-4.2,3.6-10.3,5.8-16,6.7
			l-0.2-0.9c5-2,9.3-4.8,12.2-7.9c3.2-3.4,4.5-6.7,4.9-12.5c0.3-3.5,0.4-8.1,0.4-13.9c0-1.6-0.1-3.2-0.1-4.8c0-1.9-1-3-3.9-3.6
			L510.7,154.8z"/>
		<path class="st0" d="M535.2,157.6c1.8,1.1,3.1,1.5,4.8,1.5c3.3,0,16.6-0.9,24.8-1.6c2.6-0.2,3.9-0.5,4.7-0.9
			c0.5-0.3,1.1-0.7,1.9-0.7s2,0.7,4.1,2.5c2.2,2,3,3.1,3,3.9c0,1.3-0.9,1.7-2.2,1.9c-1.1,0.1-2,0.3-3.6,1.2c-3.8,2.1-7.7,4-11.7,5.9
			c-2.1,11.9-5.8,22-18.5,27.8l-0.5-0.8c8-6.9,11.8-16.1,12.9-28.6c0.1-0.4,0.1-0.9,0.1-1.2c0-0.7-0.1-1.2-0.4-1.4
			c-0.6-0.5-1.3-0.9-2.9-1.4v-0.9c1.3-0.3,2.4-0.4,3.2-0.4c0.9,0,2.9,0.5,3.8,0.9c1.4,0.7,2.4,1.3,2.8,1.7c0.3,0.3,0.4,0.7,0.4,0.9
			c0,0.1-0.1,0.2-0.1,0.2c-0.1,0.3-0.2,0.5-0.2,0.8c2.5-1.9,4.6-4.2,7.2-7.5c0.1-0.2,0.2-0.3,0.2-0.4c0-0.2-0.2-0.4-0.5-0.4
			c-9,0.7-15.5,1.4-20.8,2.2c-3.2,0.5-4.5,0.8-5.1,1c-1,0.4-1.6,0.6-2,0.6c-1.1,0-2.5-1-4.2-3.2c-0.9-1.2-1.5-2-1.7-3.2L535.2,157.6
			z"/>
		<path class="st0" d="M578.7,192.2c4.2-2.7,7.1-6,9.8-10.7c2.2-3.8,4.2-9.2,4.2-12.7c0-0.9-0.3-1.4-0.6-1.7
			c-0.4-0.5-0.8-0.9-2.2-1.5l0.1-0.9c1-0.3,1.5-0.3,2.4-0.3c2,0,4.4,1.5,5.7,2.8c1,1,1.1,1.5,1.1,1.7c0,0.7-0.2,1.4-0.4,1.7
			c-0.2,0.4-0.4,0.8-0.7,1.6c-1.8,5.3-3.4,8.7-6.2,12c-3.3,3.9-6.5,6.4-12.5,8.7L578.7,192.2z M628.7,173.4
			c-4.5,6.5-9.7,11-17.6,15.6c-0.9,0.5-1.5,0.9-1.9,1.4c-0.4,0.5-0.9,0.7-1.2,0.7c-0.5,0-1.1-0.2-1.7-0.7c-1.4-1-2.8-2.3-3.6-3.3
			c-0.4-0.5-0.7-0.9-0.7-1.4c0-0.4,0.1-0.8,0.3-1.3c0.2-0.6,0.3-1.3,0.3-2.1c0.1-4.3,0.2-9.4,0.3-14.5c0-2.2-0.1-3.7-0.3-4.5
			c-0.3-0.8-1.5-1.4-3.2-1.6l-0.1-0.9c1.1-0.6,2.3-1,3.2-1c1.4,0,3.9,0.9,6,2.2c0.8,0.5,1.3,1.2,1.3,1.7c0,0.7-0.2,1.1-0.4,1.5
			c-0.6,0.7-0.8,1.4-0.9,2.5c-0.2,1.3-0.3,2.6-0.3,4.1c-0.1,3.1-0.3,7.2-0.3,11.4c0,0.4,0.3,0.7,0.8,0.7c0.1,0,0.3,0,0.4-0.1
			c5.7-2,12.5-5.7,19-10.9L628.7,173.4z"/>
		<path class="st0" d="M630,183.7c1.3,1.1,2.8,1.6,4.5,1.6c1.5,0,3-0.1,4.5-0.2c3.7-0.3,7.4-0.7,11.5-1c0.7-0.1,0.8-0.1,0.8-0.6
			c0.3-3.7,0.5-7.3,0.5-11c0-1.3-0.5-2.6-2.3-3.2c-1.7,0.1-3.5,0.4-5.6,0.7c-0.7,0.1-1.1,0.2-1.6,0.2c-0.9,0-2-0.2-3.3-1.7
			c-1.5-1.6-2.1-3-2.2-3.9l0.5-0.4c1.1,0.8,1.6,1.1,2.6,1.4c0.9,0.3,2.1,0.4,3.4,0.4c1.8,0,4-0.3,8.1-0.7c4.2-0.4,7.3-1,9.8-1.7
			c0.7-0.2,1.3-0.6,2.1-1.2c0.4-0.3,1-0.5,1.4-0.5c0.9,0,2,0.4,3.9,1.3c1.7,0.8,2.3,1.7,2.3,2.7c0,1-0.7,1.6-2.4,1.7
			c-1.4,0.1-2.9,0.1-4.3,0.2c-4,0.3-6.6,0.7-9.7,1c1.4,0.5,2.3,1.1,2.8,1.5c0.7,0.4,1.1,0.9,1.1,1.5c0,0.5-0.1,0.9-0.3,1.3
			c-0.4,0.8-0.5,1.5-0.7,2.1c-0.5,3.2-0.9,5.8-1.3,8.6c2.9-0.1,4.3-0.3,7.1-0.4c1.5-0.1,2-0.2,3.3-0.3c1.5-0.2,1.9-0.3,2.5-0.6
			c0.5-0.3,0.9-0.4,1.3-0.4c1.1,0,3.8,1.2,5.3,2.3c1,0.8,1.7,1.5,1.7,2.5c0,1-0.5,1.9-2.1,1.9c-1,0-3.6-0.5-5-0.7
			c-2-0.3-4.5-0.4-6.3-0.4c-1.4,0-2.6-0.1-3.8-0.1c-2.1,0-4,0.1-6.3,0.2c-4.8,0.2-10.5,0.9-13.9,1.7c-1.1,0.3-1.9,0.4-2.7,0.7
			c-0.5,0.5-1.1,0.6-1.6,0.6c-1.1,0-3.1-1-4.9-3.2c-0.9-1.1-1.4-2.4-1.6-3.4L630,183.7z"/>
		<path class="st0" d="M688.5,160.9c0.5,0.5,1,0.9,1.9,1.4c0.7,0.4,1.5,0.6,2.6,0.6c4.1,0,11.2-0.8,16.4-1.4
			c1.6-0.2,2.4-0.6,3.6-1.6c0.4-0.4,0.9-0.6,1.3-0.6c0.6,0,1.7,0.4,3.2,1.5c2.2,1.7,2.7,2.5,2.7,3.3c0,0.8-0.3,1.3-1.3,1.6
			c-1,0.4-1.8,0.8-2.7,2.1c-2.4,3.1-4.4,6-7.5,9.4c6.2,2.1,10.3,4.2,13.6,6.9c1.6,1.4,2.8,3.2,2.8,5.1c0,1.4-1,3.3-3.2,3.3
			c-1,0-2.1-0.5-3.3-2.2c-3.1-4.5-6.5-8.4-11.3-11.5c-6.7,6.8-13.8,11.8-25.8,14.7l-0.3-0.9c12.8-6,20.7-13.8,29.4-27.1
			c0.1-0.2,0.3-0.4,0.3-0.6c0-0.1-0.2-0.2-0.3-0.2c-0.1,0-0.3,0.1-0.4,0.1c-4.2,0.5-8.3,1.2-11.5,1.7c-1.3,0.2-2.8,0.7-4,1.1
			c-0.4,0.2-1,0.3-1.5,0.3c-0.9,0-2-0.6-3.6-2.3c-1.1-1.3-1.6-2.5-1.7-3c-0.1-0.6-0.1-1.2-0.1-1.6L688.5,160.9z"/>
		<path class="st0" d="M730.6,167.7c1.4,1.3,2.9,1.9,4.2,1.9c0.9,0,1.8-0.1,2.8-0.2c8.1-0.6,15.9-1.3,25-1.9
			c2.1-0.2,2.8-0.4,4.2-0.9c0.9-0.3,1.3-0.4,1.6-0.4c0.8,0,2.4,0.5,4.2,1.7c1,0.7,1.6,1.6,1.6,2.3c0,1.3-0.9,1.7-2.4,1.7
			c-1.4,0-2.7-0.2-4.3-0.4c-1.9-0.2-3.4-0.3-6-0.3c-1.9,0-3.9,0.1-7.3,0.2c1.1,0.5,1.8,0.9,2.5,1.4c0.6,0.5,0.9,0.9,0.9,1.4
			c0,0.5-0.1,0.8-0.4,1.2c-0.4,0.5-0.7,1.1-0.9,1.6c-0.5,1.3-0.9,2.2-1.5,3.4c-4,8.4-9.3,14.5-19.6,18l-0.5-0.9
			c7.5-5.1,12.3-12.4,15.1-20.6c0.6-1.7,0.8-2.5,0.8-3.4c0-0.3-0.2-1-1.1-1.6c-3.2,0.3-6.7,0.7-10.4,1.4c-0.6,0.1-1.2,0.3-1.8,0.5
			c-0.7,0.3-1.4,0.5-1.9,0.5c-0.7,0-2.1-0.5-3.4-2c-1.5-1.7-1.9-2.9-2.2-4.3L730.6,167.7z M738.5,156.6c2.1,1.3,3.2,1.4,4.6,1.4
			c3.4,0,7.5-0.4,11.5-0.9c2.4-0.3,3.3-0.8,3.9-1.1c0.5-0.3,0.9-0.5,1.2-0.5c0.7,0,2.2,0.4,3.8,1.2c1.4,0.8,1.7,1.5,1.7,2.2
			c0,1.3-0.5,1.9-4.3,1.9c-1.9,0-3.9,0.1-5.8,0.2c-3.9,0.3-5.8,0.5-8.7,0.8c-0.5,0.1-1.1,0.2-1.7,0.3c-0.5,0.1-0.8,0.2-1.6,0.2
			c-2.2,0-4.6-3.2-5.1-5.3L738.5,156.6z"/>
		<path class="st0" d="M782.4,171.5c2.2,1.8,3.3,2.1,5.9,2.1c11,0,24.9-0.9,25.9-0.9c3.8,0,6-0.7,6.7-0.7c1.1,0,3,0.4,4,0.8
			c1.4,0.5,2.4,1.3,2.4,2.6c0,1.8-1.3,2.6-4.5,2.6c-2.6,0-5.1,0.1-7.7,0.1c-6,0-15,0.3-23.1,0.8c-0.9,0.1-1.9,0.3-2.4,0.5
			c-0.5,0.2-1,0.7-1.9,0.7c-1,0-2.7-1.2-4.1-3.2c-1.2-1.7-1.7-3.2-2-4.9L782.4,171.5z"/>
		<path class="st0" d="M838.8,154.1c1.3-0.4,3-0.6,3.8-0.6c1,0,2.8,0.6,4.4,1.6c1.6,1,2.4,1.9,2.4,2.7c0,0.6-0.2,1.2-0.6,1.7
			c-0.6,0.8-0.7,1.6-0.8,3.2c-0.1,2-0.1,4.3-0.1,8.1c3.5,0.2,7.2,0.9,10.3,2c3.8,1.3,5.1,3.3,5.1,5.6c0,2.3-1.4,3.3-3.1,3.3
			c-1.4,0-2.6-1-3.3-1.9c-2.6-3.2-5.7-5.6-9.1-6.8c0,6.8,0.2,15.7,0.2,21.9c0,1.7-0.8,3.2-2.6,3.2c-1,0-1.8-0.4-2.6-1.6
			c-0.8-1.2-0.8-2.2-0.8-3.5c0-1.1,0.4-4.5,0.4-14.7c0.1-3.6,0.1-6.7,0.1-9.8c0-3.1,0-6.1-0.1-9.2c-0.1-1.5-0.2-2.1-0.6-2.5
			c-0.5-0.7-1.3-1.4-3.1-1.7V154.1z"/>
		<path class="st0" d="M876.2,166.9l-4.9,0.3v-3.3l4.9,0.3h2.4v-4.9c0-4-0.1-6.5-0.3-8.7c6.5,0.7,7.5,1,7.5,1.7s-0.5,1-2,1.7v10.1
			h0.5c0.8-1.2,1.7-2.4,2.8-3.7c3.8,3.9,4.3,4.5,4.3,5.1c0,0.7-0.3,1.3-0.9,1.3h-6.8c0,2.1,0.1,5.4,0.1,7.4c5.9,1,7.9,3.6,7.9,6
			c0,2-1.2,3.1-2.9,3.1c-1.3,0-2.3-0.8-2.6-2.4c-0.3-2.1-1.1-4-2.5-5.4c0.1,17,0.3,21.3,0.3,22.9c0,1.4-1.9,2.4-4.3,2.4
			c-1.1,0-1.7-0.5-1.7-1.4c0-1.5,0.2-5.5,0.3-19.5c-1.9,3.9-4.2,7.5-7,10.9l-0.7-0.5c1.8-3.9,3.3-8,4.5-12.1
			c1.1-3.7,2.1-7.5,2.6-11.4H876.2z M923.5,192.2c-1.9,0.2-3.6,1.2-4.7,2.2c-0.5,0.5-0.8,0.8-1.1,0.8c-0.3,0-0.6-0.3-1.1-0.8
			c-3.9-4.2-6.9-10.8-8.1-17.5c0.1,16.7,0.3,20.5,0.3,21.9c0,1.4-2,2.3-4.5,2.3c-1,0-1.6-0.5-1.6-1.3c0-1.4,0.2-4.8,0.3-18.1
			c-4.3,6.3-10.1,11.2-17.1,14.7l-0.5-0.7c6.2-5.1,11.6-12.6,14.8-20.2h-5.5l-5.1,0.3v-3.3l5.1,0.3h8.4c0.1-2.8,0.1-5.6,0.1-8.4
			h-6.1c-1.4,2.8-3.1,5.4-5.5,7.9l-0.7-0.4c1.9-5.1,3.2-12,3.8-18.7c6.8,1.4,7.4,1.8,7.4,2.5c0,0.7-0.7,1.1-2.1,1.4
			c-0.5,1.5-1,3.1-1.6,4.5h4.8v-3.3c0-3.4-0.1-5.8-0.3-7.9c6.6,0.7,7.7,1,7.7,1.7c0,0.7-0.5,1-2,1.6v7.9h3.9c1-1.3,2.1-2.7,3.6-4.3
			c5.4,4.6,5.6,5.3,5.6,5.9c0,0.7-0.3,1.2-0.8,1.2h-12.3c0,2.2,0.1,6.6,0.1,8.4h4.6c1.1-1.4,2.2-2.8,3.7-4.4
			c5.5,4.6,5.8,5.3,5.8,5.9c0,0.7-0.3,1.3-0.9,1.3h-12.2c2.6,5.9,7.9,12.1,14.3,15.9L923.5,192.2z"/>
		<path class="st0" d="M938.9,175.4h-4l-5.1,0.3v-3.3l5.1,0.3h10.7c0.9-1.2,2.1-2.6,3.3-4c5,4.4,5.3,5.1,5.3,5.6
			c0,0.7-0.3,1.1-0.9,1.1h-7.5c-0.2,0.4-0.5,0.5-0.9,0.7v12.4c4.1-0.3,8.1-0.8,12.2-1.3l0.2,0.8c-9.2,3.6-16.9,5.8-24.4,7.6
			c-0.4,1.5-0.8,2.1-1.6,2.1c-0.8,0-1.6-0.9-3.9-8.1c4-0.2,7.8-0.4,11.6-0.7V175.4z M933.4,163l-5.5,0.3V160l5.5,0.3H954
			c-0.2-3.1-0.2-6.4-0.2-10.1c7.7,0.8,8,1.2,8,2c0,0.7-0.5,1.1-2,1.7c0,2.2,0.1,4.4,0.1,6.3h9.2c1.2-1.6,2.3-2.8,3.7-4.3
			c5.1,4.4,5.3,5.1,5.3,5.8c0,0.8-0.3,1.3-0.9,1.3H960c0.5,8.1,1.7,14,3.7,18.5c1.6,3.6,3.8,6.6,5.8,8.6c1.5,1.5,2,1.9,2.5,1.9
			c0.7,0,1.1-0.3,1.7-1.1c1-1.5,2.1-3.3,2.9-5l0.8,0.3c-0.8,3.6-1.1,5.2-1.1,6.9c0,1.5,1.7,2.2,1.7,4.2c0,2-1.3,3.1-3.5,3.1
			c-2.1,0-5.1-0.8-8.7-4.5c-3.1-3.1-6-7.4-7.7-11.6c-2-5-3.4-11.5-4-21.2H933.4z M962.6,151.3c6,0,8.4,2.5,8.4,4.6c0,2-1.4,3-2.8,3
			c-1.3,0-2.2-0.7-2.7-2.2c-0.7-2.1-1.7-3.6-3.1-4.6L962.6,151.3z"/>
		<path class="st0" d="M979.6,175.9c9-6.2,17.3-15.1,23.1-26c7.1,2.4,7.5,2.8,7.5,3.7c0,0.4-0.3,1-1.9,1.4
			c5.2,6.5,13.2,11.1,23.1,13.9l-0.2,0.8c-1.9,0.3-3.7,1.6-4.8,3.3c-0.5,0.8-0.7,1.1-1.1,1.1c-0.3,0-0.7-0.2-1.1-0.4
			c-7.9-4.2-13.6-10.3-17.3-18.2c-6.3,9.2-16.3,16.8-26.9,21L979.6,175.9z M1005.8,182.4c-0.2,0.5-0.7,0.9-1.6,0.9
			c-2.2,3.2-5.6,6.9-8.7,9.5c6.9-0.1,13.8-0.3,20.8-0.6c-1.9-2.5-4-4.8-6.6-6.7l0.5-0.7c6.2,1.5,11,4.2,14,7.6
			c1.3,1.5,1.7,2.9,1.7,4.3c0,1.9-1.4,3.3-3,3.3c-1.5,0-2.7-0.5-3.5-2.3c-0.5-1.3-1.3-2.6-2-3.7c-10.5,2.2-20.5,3.8-29.1,4.8
			c-0.5,1.5-1,1.9-1.7,1.9c-0.8,0-1.3-0.8-3.3-7.7c3.2,0,6.2,0,9.1-0.1c1.9-3.3,3.4-6.8,4.7-10.4h-9l-5.5,0.3v-3.3l5.5,0.3h29.7
			c1.2-1.6,2.6-3.3,4.1-4.9c6,5.4,6.2,5.8,6.2,6.5s-0.3,1.1-0.9,1.1H1005.8z M997.4,170.5h9.5c1.2-1.5,2.5-3.1,3.9-4.5
			c5.6,5.1,5.8,5.6,5.8,6.1c0,0.7-0.3,1.2-0.9,1.2h-18.4l-4.9,0.3v-3.3L997.4,170.5z"/>
		<path class="st0" d="M1039.3,163.8l-5.2,0.3v-3.3l5.2,0.3h1.9v-4.4c0-2.8-0.1-4.4-0.3-5.8c7,0.7,8.3,1.1,8.3,1.9s-0.6,1.1-2.2,1.8
			v6.6h1.6c1-1.6,1.6-2.1,2.2-2.1c0.8,0,1.5,0.3,3.1,1.5c1.9,1.4,2.4,2.1,2.4,2.7c0,0.6-0.4,1.1-2.1,1.9c-1.8,3.7-4.2,7.1-7.1,10.3
			v2.2c6.1,0.4,8.9,3.1,8.9,5.5c0,1.7-1.2,3.2-2.9,3.2c-1.4,0-2.2-0.8-2.7-2.2c-0.7-2.3-1.8-4-3.3-5.2v0.9c0,14.3,0.2,17.9,0.2,19.4
			c0,1.2-2,2-4.4,2c-1,0-1.5-0.4-1.5-1.3c0-1.5,0.2-4.9,0.2-19.2c-2.5,2.1-5.2,4-8,5.7l-0.5-0.6c3.5-3.4,6.6-7.3,9.2-11.4
			c2.2-3.4,4.2-7,5.7-10.8H1039.3z M1064.8,172h-5.7l-5.5,0.3V169l5.5,0.3h5.7v-8.8c0-4.2-0.1-7.2-0.3-9.6c7.8,0.7,9,1.2,9,2
			s-0.7,1.3-2.4,1.9v14.5h2.9c1.1-1.6,2.2-3.1,3.5-4.5c5.6,4.8,5.9,5.4,5.9,6c0,0.7-0.3,1.3-0.9,1.3H1071v23.6h3.8
			c1.1-1.5,2.2-2.9,3.7-4.6c5.6,4.7,6.2,5.4,6.2,6.2c0,0.8-0.4,1.1-0.8,1.1h-29.2l-5.5,0.3v-3.3l5.5,0.3h10.1V172z"/>
	</g>
	<g>
		<radialGradient id="SVGID_1_" cx="169.9983" cy="-75.5782" r="223.12" gradientUnits="userSpaceOnUse">
			<stop  offset="0.4192" style="stop-color:#00B8EE"/>
			<stop  offset="1" style="stop-color:#0B308E"/>
		</radialGradient>
		<polygon class="st1" points="130.5,57.2 130.5,72.1 139.4,81 124.8,95.6 124.8,51.5 114.2,40.9 114.2,106.2 108.5,111.9 
			108.5,35.2 97.9,24.7 97.9,122.5 92.2,128.2 92.2,19 81.7,8.4 81.7,153.7 154.3,81 		"/>
		<radialGradient id="SVGID_2_" cx="169.9983" cy="-75.5782" r="223.12" gradientUnits="userSpaceOnUse">
			<stop  offset="0.4192" style="stop-color:#F9BE00"/>
			<stop  offset="1" style="stop-color:#A86124"/>
		</radialGradient>
		<polygon class="st2" points="64.3,82 64.3,128.2 40.2,104.1 25.3,104.1 74.9,153.7 74.9,71.4 26.8,71.4 74.9,23.3 74.9,8.4 
			1.3,82 		"/>
		<radialGradient id="SVGID_3_" cx="78.8462" cy="-5.6243" r="48.5161" gradientUnits="userSpaceOnUse">
			<stop  offset="0" style="stop-color:#FFFFFF"/>
			<stop  offset="1" style="stop-color:#FFFFFF;stop-opacity:0"/>
		</radialGradient>
		<polygon class="st3" points="131.5,59.7 131.5,71.7 140.9,81 123.7,98.2 123.7,51.9 115.3,43.5 115.3,106.6 107.5,114.4 
			107.5,35.7 99,27.2 99,122.9 91.2,130.7 91.2,19.4 82.7,10.9 82.7,151.1 152.8,81 		"/>
		<radialGradient id="SVGID_4_" cx="78.8462" cy="-5.6243" r="48.5161" gradientUnits="userSpaceOnUse">
			<stop  offset="0" style="stop-color:#FFFFFF"/>
			<stop  offset="1" style="stop-color:#FFFFFF;stop-opacity:0"/>
		</radialGradient>
		<polygon class="st4" points="65.4,80.9 65.4,130.7 39.8,105.1 27.8,105.1 73.8,151.1 73.8,72.5 24.3,72.5 73.8,22.9 73.8,10.9 
			3.9,80.9 		"/>
		<radialGradient id="SVGID_5_" cx="77.7863" cy="175.6199" r="46.8792" gradientUnits="userSpaceOnUse">
			<stop  offset="0" style="stop-color:#FFFFFF"/>
			<stop  offset="1" style="stop-color:#FFFFFF;stop-opacity:0"/>
		</radialGradient>
		<polygon class="st5" points="131.5,59.7 131.5,71.7 140.9,81 123.7,98.2 123.7,51.9 115.3,43.5 115.3,106.6 107.5,114.4 
			107.5,35.7 99,27.2 99,122.9 91.2,130.7 91.2,19.4 82.7,10.9 82.7,151.1 152.8,81 		"/>
		<radialGradient id="SVGID_6_" cx="77.7863" cy="175.6199" r="46.8792" gradientUnits="userSpaceOnUse">
			<stop  offset="0" style="stop-color:#FFFFFF"/>
			<stop  offset="1" style="stop-color:#FFFFFF;stop-opacity:0"/>
		</radialGradient>
		<polygon class="st6" points="65.4,80.9 65.4,130.7 39.8,105.1 27.8,105.1 73.8,151.1 73.8,72.5 24.3,72.5 73.8,22.9 73.8,10.9 
			3.9,80.9 		"/>
	</g>
</g>
</svg>
